<?xml version="1.0" encoding="utf-8"?>
<!-- Generator: Adobe Illustrator 26.4.1, SVG Export Plug-In . SVG Version: 6.00 Build 0)  -->
<svg version="1.0" id="katman_1" xmlns="http://www.w3.org/2000/svg" xmlns:xlink="http://www.w3.org/1999/xlink" x="0px" y="0px"
	 viewBox="0 0 1190.55 841.89" style="enable-background:new 0 0 1190.55 841.89;" xml:space="preserve">
<style type="text/css">
	.st0{clip-path:url(#SVGID_00000064328323175552339240000016802422056890343552_);}
	.st1{fill:#020203;}
	.st2{fill:#FAD83C;}
</style>
<g>
	<defs>
		<rect id="SVGID_1_" x="114.18" y="308.06" width="961.38" height="225.3"/>
	</defs>
	<clipPath id="SVGID_00000018948403107845893280000002797698201268894886_">
		<use xlink:href="#SVGID_1_"  style="overflow:visible;"/>
	</clipPath>
	<g style="clip-path:url(#SVGID_00000018948403107845893280000002797698201268894886_);">
		<path class="st1" d="M162.17,333.98l19.14-10.96l109.1,50.31c0,0,1.39,90.12,0,89.81c-1.39-0.31-73.76,40.74-73.76,40.74
			l-72.07-46.91C144.58,456.97,162.17,333.98,162.17,333.98z"/>
		<path class="st2" d="M301.36,351.58l-67.28-38.73c-10.88-6.32-24.31-6.32-35.18,0l-17.59,10.18v97.99
			c0.1,19.52,16,35.26,35.52,35.16c6.05-0.03,11.99-1.62,17.26-4.6c16.87-9.81,22.61-31.43,12.8-48.31
			c-6.3-10.84-17.86-17.53-30.39-17.58v-22.07c6.02,0,12.19,1.54,17.59,4.78l19.14,11.11c10.91,6.3,17.62,17.95,17.59,30.55v22.07
			c0,12.5-6.64,24.23-17.59,30.55l-19.14,11.11c-10.83,6.48-24.35,6.48-35.18,0l-19.14-11.11c-10.91-6.3-17.62-17.95-17.59-30.55
			v-98.14l-30.4,17.59c-10.91,6.3-17.62,17.95-17.59,30.55v77.62c0,12.5,6.64,24.23,17.59,30.55l67.28,38.73
			c10.88,6.32,24.31,6.32,35.18,0l67.28-38.73c10.91-6.3,17.62-17.95,17.59-30.55v-77.62C318.95,369.54,312.22,357.95,301.36,351.58
			z M194.88,393.24c-2.01,1.54-3.7,3.24-5.25,5.09v-24.69l5.25-3.09V393.24z M208.31,386.76c-1.85,0.46-3.55,0.93-5.25,1.7v-22.22
			c1.7-0.77,3.55-1.23,5.25-1.7V386.76z"/>
		<path class="st1" d="M430.52,447.56c0,5.71-1.39,10.34-4.32,14.2c-3.04,3.91-7.1,6.9-11.73,8.64c-5.11,2.01-10.56,3-16.05,2.93
			h-48.3v-100h53.55c4.63,0,8.8,1.23,12.19,3.7c3.39,2.47,6.02,5.71,7.87,9.57c3.94,8.28,3.59,17.95-0.93,25.92
			c-2.4,4.28-6.14,7.64-10.65,9.57c5.38,1.51,10.14,4.7,13.58,9.1C428.83,435.68,430.52,441.08,430.52,447.56z M369.41,390v25.15
			h25.92c4.21,0.04,8.11-2.2,10.18-5.86c1.08-1.85,1.54-4.17,1.54-6.79c0-2.47-0.46-4.78-1.54-6.64c-0.87-1.82-2.27-3.32-4.01-4.32
			c-1.7-1.08-3.55-1.54-5.56-1.54C395.96,390,369.41,390,369.41,390z M410.93,443.86c0-2.47-0.46-4.78-1.54-6.79
			c-1-1.89-2.43-3.53-4.17-4.78c-1.77-1.2-3.88-1.8-6.02-1.7h-29.78v26.39h28.86c2.31,0,4.48-0.62,6.48-1.7
			c1.88-1.23,3.46-2.87,4.63-4.78C410.46,448.33,410.93,446.17,410.93,443.86z M478.21,474.72c-15.68,0.56-30.07-8.66-36.11-23.15
			c-4.42-10.84-3.69-23.1,2.01-33.33c3.09-5.71,7.72-10.34,13.58-13.89c5.86-3.55,12.81-5.25,20.83-5.25
			c7.25-0.23,14.42,1.59,20.68,5.25c5.71,3.55,10.18,8.02,13.12,13.73c3.09,5.71,4.63,11.88,4.63,18.52l-0.15,3.39l-0.31,2.93h-57.1
			c0.31,3.7,1.54,6.94,3.24,9.57c1.85,2.78,4.17,4.78,7.1,6.33c2.93,1.39,5.86,2.16,9.26,2.16c3.7,0,7.25-0.93,10.65-2.78
			c3.04-1.55,5.44-4.12,6.79-7.25l16.2,4.48c-1.87,3.83-4.5,7.24-7.72,10.03c-3.44,3-7.42,5.3-11.73,6.79
			C488.55,473.95,483.61,474.72,478.21,474.72L478.21,474.72z M458.92,430.89h38.58c-0.42-6.66-4.2-12.65-10.03-15.89
			c-2.78-1.54-6.02-2.31-9.41-2.31c-6.49-0.1-12.56,3.17-16.05,8.64C460.23,424.22,459.17,427.5,458.92,430.89z M562.46,474.72
			c-15.68,0.56-30.07-8.66-36.11-23.15c-4.42-10.84-3.69-23.1,2.01-33.33c3.09-5.71,7.72-10.34,13.58-13.89s12.81-5.25,20.83-5.25
			c7.25-0.23,14.42,1.59,20.68,5.25c5.71,3.55,10.18,8.02,13.12,13.73c3.09,5.71,4.63,11.88,4.63,18.52l-0.15,3.39l-0.31,2.93h-57.1
			c0.31,3.7,1.54,6.94,3.24,9.57c1.85,2.78,4.17,4.78,7.1,6.33c2.93,1.39,5.86,2.16,9.26,2.16c3.7,0,7.25-0.93,10.65-2.78
			c3.04-1.55,5.44-4.12,6.79-7.25l16.2,4.48c-1.87,3.83-4.5,7.24-7.72,10.03c-3.44,3-7.42,5.3-11.73,6.79
			C572.63,473.97,567.56,474.81,562.46,474.72L562.46,474.72z M543.17,430.89h38.58c-0.42-6.66-4.2-12.65-10.03-15.89
			c-2.78-1.54-6.02-2.31-9.41-2.31c-6.49-0.1-12.56,3.17-16.05,8.64C544.55,424.25,543.49,427.52,543.17,430.89z M663.08,473.33
			l-21.6-31.63l-10.03,9.72v21.76h-18.83V370.56h18.83v62.5l29.78-32.87h20.06l-27.47,31.02l29.47,42.13
			C683.29,473.33,663.08,473.33,663.08,473.33z"/>
		<path class="st1" d="M721.56,474.72c-15.68,0.56-30.07-8.66-36.11-23.15c-4.42-10.84-3.69-23.1,2.01-33.33
			c3.09-5.71,7.72-10.34,13.58-13.89s12.81-5.25,20.83-5.25c7.25-0.23,14.42,1.59,20.68,5.25c5.71,3.55,10.18,8.02,13.12,13.73
			c3.09,5.71,4.63,11.88,4.63,18.52l-0.15,3.39l-0.31,2.93h-57.1c0.31,3.7,1.54,6.94,3.24,9.57c1.85,2.78,4.17,4.78,7.1,6.33
			c2.93,1.39,5.86,2.16,9.26,2.16c3.7,0,7.25-0.93,10.65-2.78c3.04-1.55,5.44-4.12,6.79-7.25l16.2,4.48
			c-1.87,3.83-4.5,7.24-7.72,10.03C740.71,471.56,731.27,474.84,721.56,474.72L721.56,474.72z M702.27,430.89h38.58
			c-0.42-6.66-4.2-12.65-10.03-15.89c-2.78-1.54-6.02-2.31-9.41-2.31c-6.49-0.1-12.56,3.17-16.05,8.64
			C703.82,424.1,702.74,427.19,702.27,430.89z M805.97,474.72c-15.68,0.56-30.07-8.66-36.11-23.15c-4.42-10.84-3.69-23.1,2.01-33.33
			c3.09-5.71,7.72-10.34,13.58-13.89c5.86-3.55,12.81-5.25,20.83-5.25c7.25-0.23,14.42,1.59,20.68,5.25
			c5.71,3.55,10.18,8.02,13.12,13.73c3.09,5.71,4.63,11.88,4.63,18.52l-0.15,3.39l-0.31,2.93h-57.1c0.31,3.7,1.54,6.94,3.24,9.57
			c1.85,2.78,4.17,4.78,7.1,6.33c2.93,1.39,5.86,2.16,9.26,2.16c3.7,0,7.25-0.93,10.65-2.78c3.04-1.55,5.44-4.12,6.79-7.25
			l16.2,4.48c-1.87,3.83-4.5,7.24-7.72,10.03c-3.44,3-7.42,5.3-11.73,6.79C816.31,473.95,811.37,474.72,805.97,474.72L805.97,474.72
			z M786.68,430.89h38.58c-0.42-6.66-4.2-12.65-10.03-15.89c-2.78-1.54-6.02-2.31-9.41-2.31c-6.49-0.1-12.56,3.17-16.05,8.64
			C787.99,424.22,786.93,427.5,786.68,430.89z M900.26,474.72c-10.4,0.26-20.11-5.19-25.31-14.2v42.75h-18.83V400.19h16.51v12.65
			c5.59-8.63,15.19-13.8,25.46-13.73c4.94,0,9.57,0.93,13.73,2.93c4.17,2.01,7.87,4.63,10.96,8.18s5.56,7.41,7.25,12.04
			c3.99,11.02,3.44,23.18-1.54,33.8c-2.58,5.47-6.51,10.19-11.42,13.73C912.09,473.07,906.23,474.79,900.26,474.72z M893.93,458.67
			c2.93,0,5.56-0.62,7.87-1.85c4.84-2.52,8.5-6.85,10.18-12.04c1.88-5.41,1.83-11.3-0.15-16.67c-0.93-2.62-2.47-4.78-4.32-6.79
			c-3.71-4.09-8.99-6.39-14.51-6.33c-1.85,0-3.55,0.31-5.4,0.93c-3.73,1.25-7.07,3.43-9.72,6.33c-1.23,1.54-2.16,3.09-2.78,4.78
			v17.13c2.17,5.32,6.16,9.7,11.26,12.35C888.69,458.05,891.31,458.67,893.93,458.67L893.93,458.67z M979.58,474.72
			c-15.68,0.56-30.07-8.66-36.11-23.15c-4.42-10.84-3.69-23.1,2.01-33.33c3.09-5.71,7.72-10.34,13.58-13.89s12.81-5.25,20.83-5.25
			c7.25-0.23,14.42,1.59,20.68,5.25c5.71,3.55,10.18,8.02,13.12,13.73c3.09,5.71,4.63,11.88,4.63,18.52l-0.15,3.39l-0.31,2.93h-57.1
			c0.31,3.7,1.54,6.94,3.24,9.57c1.85,2.78,4.17,4.78,7.1,6.33c2.93,1.39,5.86,2.16,9.26,2.16c3.7,0,7.25-0.93,10.65-2.78
			c3.04-1.55,5.44-4.12,6.79-7.25l16.2,4.48c-1.87,3.83-4.5,7.24-7.72,10.03c-3.44,3-7.42,5.3-11.73,6.79
			C989.75,473.97,984.67,474.81,979.58,474.72z M960.29,430.89h38.58c-0.42-6.66-4.2-12.65-10.03-15.89
			c-2.78-1.54-6.02-2.31-9.41-2.31c-6.49-0.1-12.56,3.17-16.05,8.64C961.6,424.22,960.54,427.5,960.29,430.89z M1073.71,415.93
			c-5.71,0-10.8,1.08-15.28,3.24c-4.26,1.96-7.7,5.34-9.72,9.57v44.6h-18.83v-73.15h17.28v15.12c2.36-4.74,5.79-8.86,10.03-12.04
			c4.01-2.93,8.33-4.48,12.81-4.78h2.47l1.39,0.15L1073.71,415.93z"/>
	</g>
</g>
</svg>
